<?xml version="1.0" encoding="UTF-8"?>
<svg id="Capa_1" data-name="Capa 1" xmlns="http://www.w3.org/2000/svg" viewBox="0 0 200 200">
  <defs>
    <style>
      .cls-1 {
        fill: #0276c7;
      }

      .cls-2 {
        fill: #7f7f7f;
      }
    </style>
  </defs>
  <g>
    <path class="cls-1" d="m44.51,80.05c2.68,0,8.57.32,11.25,8.76h7.74c0-4.44-6.53-13.36-18.12-13.36-6.98,0-19.32,2.34-19.32,14.08,0,13.74,26.38,14.3,26.38,25.7,0,4-4.25,6.34-7.83,6.34s-10.72-2.25-10.72-8.85h-8.72c0,5.36,4.59,14.04,19.53,14.04,14.08,0,18.81-8.25,18.81-14.51,0-13.32-27.06-15.32-27.06-25.53,0-5.72,5.38-6.68,8.06-6.68Z"/>
    <path class="cls-1" d="m103.79,81.49c7.23,0,12.89,5.53,16.25,10.42,0,0,3.28-3.06,4.94-4.81-2.3-2.89-9.36-11.83-23.27-11.83s-29.04,8.68-29.04,26.36,16.02,24.95,29.93,24.95,22.34-5.87,22.34-5.87v-19.08h-20.68v4.36l8.38.04v12.76s-2.08,2.55-8.08,2.55c-8.64,0-18.29-5.91-18.29-19.95s9.91-19.91,17.53-19.91Z"/>
    <path class="cls-1" d="m163.48,75.28c-17.36,0-28.08,11.61-28.08,25.08,0,15,10.08,26.48,28.08,26.48s28.08-11.49,28.08-26.48c0-13.47-10.72-25.08-28.08-25.08Zm0,47.23c-10.4,0-14.52-8.93-14.52-22.14s5.52-20.71,14.52-20.71,14.52,7.5,14.52,20.71-4.12,22.14-14.52,22.14Z"/>
  </g>
  <path class="cls-2" d="m104.46,197.5c-25.55,0-49.73-9.95-68.19-28.08-18.66-18.34-29.07-42.68-29.3-68.55-.23-25.87,9.74-50.4,28.07-69.06C53.38,13.14,77.72,2.73,103.6,2.5c.29,0,.58,0,.87,0,37.98,0,72.67,22.19,88.57,56.74l-4.67,2.15C173.19,28.42,139.94,7.3,103.64,7.64,52.72,8.1,11.66,49.9,12.11,100.82c.22,24.5,10.08,47.56,27.76,64.93,17.68,17.37,40.91,26.83,65.42,26.6,33.43-.3,64.16-18.7,80.2-48.02l4.51,2.47c-16.94,30.96-49.38,50.38-84.67,50.7-.29,0-.59,0-.88,0Z"/>
</svg>