<svg id="a" data-name="Capa 1" xmlns="http://www.w3.org/2000/svg" xmlns:xlink="http://www.w3.org/1999/xlink" viewBox="0 0 200 200">
  <defs>
    <linearGradient id="b" data-name="Degradado sin nombre" x1="138.36" y1="8.29" x2="138.36" y2="91.19" gradientTransform="translate(0 202) scale(1 -1)" gradientUnits="userSpaceOnUse">
      <stop offset="0" stop-color="#eb4b19"/>
      <stop offset="1" stop-color="#cd0003"/>
    </linearGradient>
    <linearGradient id="c" data-name="Degradado sin nombre 2" x1="116.81" y1="28.94" x2="147.42" y2="66.25" gradientTransform="translate(0 202) scale(1 -1)" gradientUnits="userSpaceOnUse">
      <stop offset="0" stop-color="#da3308"/>
      <stop offset="1" stop-color="#be001c"/>
    </linearGradient>
    <linearGradient id="d" data-name="Degradado sin nombre 3" x1="130.93" y1="29.16" x2="130.93" y2="199.5" gradientTransform="translate(0 202) scale(1 -1)" gradientUnits="userSpaceOnUse">
      <stop offset="0" stop-color="#ffdf00"/>
      <stop offset=".65" stop-color="#e24930"/>
      <stop offset="1" stop-color="#d52106"/>
    </linearGradient>
    <linearGradient id="e" data-name="Degradado sin nombre 4" x1="59.81" y1="93.15" x2="97.12" y2="105.78" gradientTransform="translate(0 202) scale(1 -1)" gradientUnits="userSpaceOnUse">
      <stop offset="0" stop-color="#001c46"/>
      <stop offset="1" stop-color="#0096d0"/>
    </linearGradient>
    <linearGradient id="f" data-name="Degradado sin nombre 5" x1="93.89" y1="-2.72" x2="27.02" y2="97.17" gradientTransform="translate(0 202) scale(1 -1)" gradientUnits="userSpaceOnUse">
      <stop offset="0" stop-color="#001c3c"/>
      <stop offset=".59" stop-color="#009ae1"/>
      <stop offset="1" stop-color="#72cef5"/>
    </linearGradient>
    <linearGradient id="g" data-name="Degradado sin nombre 6" x1="59.69" y1="46.32" x2="59.69" y2="131.68" gradientTransform="translate(0 202) scale(1 -1)" gradientUnits="userSpaceOnUse">
      <stop offset="0" stop-color="#001a3c"/>
      <stop offset="1" stop-color="#00a8d8"/>
    </linearGradient>
  </defs>
  <path d="m131.09,110.81c2.07,3.54,3.42,7.52,4.06,11.62,7.36,16.28,4.6,48.11-12.08,71.28.63-.27,1.22-.55,1.64-.7,4.39-1.58,8.62-3.81,12.58-6.27,6.07-3.76,11.55-8.48,16.18-13.9,1.63-32.1-8.63-46.12-22.39-62.02h0Z" style="fill: url(#b);"/>
  <path d="m135.14,122.44c1.15,7.46-.04,15.34-3.63,21.82-2.79,5.04-6.79,9.35-11.65,12.45-5.25,3.35-10.79,4.73-16.88,5.58.25.28.32.37.4.44,7.36,6.01,12.57,15.02,15.08,24.15.3,1.11.56,2.23.76,3.36.15.84.1,3,.55,3.67.57.83,2.01.36,3.29-.18,16.68-23.16,19.44-55,12.08-71.28h0Z" style="fill: url(#c);"/>
  <path d="m158.93,91.52c-4.74-7.64-10.95-13.31-17.64-19.17-6.83-5.97-13.5-12.68-19.06-19.86-5.3-6.85-10.15-14.93-13.11-23.09-3.16-8.73-3.91-17.7-3.91-26.9-7,12.02-12.52,26.38-12.7,40.45-.17,13.19,4.55,24.21,11.6,35.07,3.73,5.73,8.08,10.89,12.61,15.99,4.2,4.72,8.96,9.14,12.7,14.24.6.82,1.15,1.69,1.66,2.57,13.76,15.9,24.02,29.92,22.39,62.02,6.76-7.9,11.73-17.31,14.02-27.52,4.13-18.44,1.47-37.63-8.56-53.79h0Z" style="fill: url(#d);"/>
  <path d="m70.9,145.37c-2.19-3.55-3.67-7.51-4.38-11.71-2.1-12.48,2.86-24.91,12.75-32.72,4.76-3.76,10.59-6.32,16.63-6.99.72-.08,2.67-.25,3.65-.3-.78-.84-2.53-2.94-2.95-3.46-2.06-2.53-4.08-5.14-5.91-7.85-3.61-5.36-6.07-11.02-7.59-17.28-.26-1.07-.63-2.39-.9-3.92-.98.2-3.6,1.09-4.48,1.38-2.71.9-5.39,1.92-7.99,3.1-2.92,1.34-5.69,2.93-8.34,4.7-7.64,28.16-2.09,61.74,9.5,75.05h.01Z" style="fill: url(#e);"/>
  <path d="m103.33,180.35c-2.76-5.27-6.77-11.3-11.57-14.84-3.11-2.29-5.94-5.21-8.91-7.7-.83-.7-1.65-1.42-2.47-2.13-18.05-11.96-35.2-31.09-41.37-60.94-.55,1.22-1.04,2.46-1.61,3.78-1.32,3.08-2.63,6.11-3.57,9.33-1.81,6.21-3.05,12.22-3.18,18.7-.24,12.6,2.63,24.75,8.86,35.74,12.51,22.09,35.82,35.02,60.99,35.19,1.61-.09,4.25-.25,6.89-.4,2.66-.15.16-5.78-.3-7.29-.98-3.25-2.2-6.45-3.77-9.46v.02Z" style="fill: url(#f);"/>
  <path d="m80.38,155.68c-1.77-1.54-3.51-3.12-5.15-4.78-1.67-1.69-3.11-3.55-4.33-5.53-11.6-13.31-17.15-46.89-9.5-75.05-2.57,1.72-5.02,3.6-7.4,5.59-4.97,4.16-8.79,9.18-12.53,14.43-1.04,1.46-1.79,2.91-2.46,4.4,6.17,29.84,23.32,48.98,41.37,60.94Z" style="fill: url(#g);"/>
</svg>